<svg enable-background="new -143 145 512 512" viewBox="-143 145 512 512" xmlns="http://www.w3.org/2000/svg"><path fill="#FFFFFF" d="m113 145c-141.4 0-256 114.6-256 256s114.6 256 256 256 256-114.6 256-256-114.6-256-256-256zm159.8 415.7c-20.8 20.8-44.9 37.1-71.8 48.4-27.8 11.8-57.4 17.7-88 17.7-30.5 0-60.1-6-88-17.7-26.9-11.4-51.1-27.7-71.8-48.4-20.8-20.8-37.1-44.9-48.4-71.8-11.8-27.8-17.8-57.4-17.8-87.9s6-60.1 17.7-88c11.4-26.9 27.7-51.1 48.4-71.8 20.9-20.8 45-37.1 71.9-48.5 27.9-11.7 57.5-17.7 88-17.7s60.1 6 88 17.7c26.9 11.4 51.1 27.7 71.8 48.4 20.8 20.8 37.1 44.9 48.4 71.8 11.8 27.8 17.7 57.4 17.7 88 0 30.5-6 60.1-17.7 88-11.4 26.9-27.7 51.1-48.4 71.8z"/><path fill="#FFFFFF" d="m234.3 313.1c-10.2 6-21.4 10.4-33.4 12.8-9.6-10.2-23.3-16.6-38.4-16.6-29 0-52.6 23.6-52.6 52.6 0 4.1.4 8.1 1.4 12-43.7-2.2-82.5-23.1-108.4-55-4.5 7.8-7.1 16.8-7.1 26.5 0 18.2 9.3 34.3 23.4 43.8-8.6-.3-16.7-2.7-23.8-6.6v.6c0 25.5 18.1 46.8 42.2 51.6-4.4 1.2-9.1 1.9-13.9 1.9-3.4 0-6.7-.3-9.9-.9 6.7 20.9 26.1 36.1 49.1 36.5-18 14.1-40.7 22.5-65.3 22.5-4.2 0-8.4-.2-12.6-.7 23.3 14.9 50.9 23.6 80.6 23.6 96.8 0 149.7-80.2 149.7-149.7 0-2.3 0-4.6-.1-6.8 10.3-7.5 19.2-16.7 26.2-27.3-9.4 4.2-19.6 7-30.2 8.3 10.9-6.5 19.2-16.8 23.1-29.1z"/></svg>
